<svg xmlns="http://www.w3.org/2000/svg" width="805" height="600"><rect width="805" height="600" x="0" y="0" fill="#FFFFFF" id="background"/><g transform="translate(10,10)" id="visualization"><g><rect x="0" y="0" height="19.464285714285666" width="5" fill="black"><title>28: 1</title></rect><rect x="0" y="24.464285714285666" height="38.92857142857143" width="5" fill="black"><title>21: 2</title></rect><rect x="0" y="68.3928571428571" height="38.928571428571445" width="5" fill="black"><title>25: 2</title></rect><rect x="0" y="112.32142857142854" height="38.92857142857146" width="5" fill="black"><title>23: 2</title></rect><rect x="0" y="156.25" height="58.39285714285717" width="5" fill="black"><title>19: 3</title></rect><rect x="0" y="219.64285714285717" height="77.85714285714283" width="5" fill="black"><title>20: 4</title></rect><rect x="780" y="10" height="77.85714285714289" width="5" fill="black"><title>IN23: 4</title></rect><rect x="780" y="92.85714285714289" height="116.78571428571428" width="5" fill="black"><title>A22: 6</title></rect><rect x="0" y="302.5" height="136.25" width="5" fill="black"><title>22: 7</title></rect><rect x="0" y="443.75" height="136.25" width="5" fill="black"><title>24: 7</title></rect><rect x="780" y="214.64285714285717" height="155.71428571428572" width="5" fill="black"><title>L20: 8</title></rect><rect x="780" y="375.3571428571429" height="194.6428571428571" width="5" fill="black"><title>S10-Rev23: 10</title></rect></g><g fill="none" stroke-opacity="1"><g style="mix-blend-mode: multiply;"><path d="M5,34.19642857142853C392.5,34.19642857142853,392.5,102.58928571428575,780,102.58928571428575" stroke="#2ca02c" stroke-width="19.464285714285715"/><title>21 → A22: 1</title></g><g style="mix-blend-mode: multiply;"><path d="M5,229.37500000000003C392.5,229.37500000000003,392.5,199.91071428571433,780,199.91071428571433" stroke="#ff7f0e" stroke-width="19.464285714285715"/><title>20 → A22: 1</title></g><g style="mix-blend-mode: multiply;"><path d="M5,185.44642857142858C392.5,185.44642857142858,392.5,160.98214285714292,780,160.98214285714292" stroke="#1f77b4" stroke-width="58.392857142857146"/><title>19 → A22: 3</title></g><g style="mix-blend-mode: multiply;"><path d="M5,78.12499999999996C392.5,78.12499999999996,392.5,122.05357142857147,780,122.05357142857147" stroke="#e377c2" stroke-width="19.464285714285715"/><title>25 → A22: 1</title></g><g style="mix-blend-mode: multiply;"><path d="M5,341.42857142857144C392.5,341.42857142857144,392.5,48.92857142857143,780,48.92857142857143" stroke="#d62728" stroke-width="77.85714285714286"/><title>22 → IN23: 4</title></g><g style="mix-blend-mode: multiply;"><path d="M5,399.8214285714286C392.5,399.8214285714286,392.5,350.8928571428572,780,350.8928571428572" stroke="#d62728" stroke-width="38.92857142857143"/><title>22 → L20: 2</title></g><g style="mix-blend-mode: multiply;"><path d="M5,268.30357142857144C392.5,268.30357142857144,392.5,302.2321428571429,780,302.2321428571429" stroke="#ff7f0e" stroke-width="58.392857142857146"/><title>20 → L20: 3</title></g><g style="mix-blend-mode: multiply;"><path d="M5,53.660714285714235C392.5,53.660714285714235,392.5,224.37500000000003,780,224.37500000000003" stroke="#2ca02c" stroke-width="19.464285714285715"/><title>21 → L20: 1</title></g><g style="mix-blend-mode: multiply;"><path d="M5,97.58928571428567C392.5,97.58928571428567,392.5,243.83928571428575,780,243.83928571428575" stroke="#e377c2" stroke-width="19.464285714285715"/><title>25 → L20: 1</title></g><g style="mix-blend-mode: multiply;"><path d="M5,429.01785714285717C392.5,429.01785714285717,392.5,424.01785714285717,780,424.01785714285717" stroke="#d62728" stroke-width="19.464285714285715"/><title>22 → S10-Rev23: 1</title></g><g style="mix-blend-mode: multiply;"><path d="M5,511.875C392.5,511.875,392.5,501.87500000000006,780,501.87500000000006" stroke="#8c564b" stroke-width="136.25"/><title>24 → S10-Rev23: 7</title></g><g style="mix-blend-mode: multiply;"><path d="M5,9.732142857142858C392.5,9.732142857142858,392.5,385.0892857142857,780,385.0892857142857" stroke="#7f7f7f" stroke-width="19.464285714285715"/><title>28 → S10-Rev23: 1</title></g><g style="mix-blend-mode: multiply;"><path d="M5,141.5178571428571C392.5,141.5178571428571,392.5,404.55357142857144,780,404.55357142857144" stroke="#9467bd" stroke-width="19.464285714285715"/><title>23 → S10-Rev23: 1</title></g><g style="mix-blend-mode: multiply;"><path d="M5,122.0535714285714C392.5,122.0535714285714,392.5,263.30357142857144,780,263.30357142857144" stroke="#9467bd" stroke-width="19.464285714285715"/><title>23 → L20: 1</title></g></g><g><text x="9" y="9.732142857142833" text-anchor="start"><tspan alignment-baseline="middle" x="9" style="font-family: Arial, sans-serif; font-size: 10px; fill: black; font-weight: bold;">28</tspan></text><text x="9" y="43.92857142857138" text-anchor="start"><tspan alignment-baseline="middle" x="9" style="font-family: Arial, sans-serif; font-size: 10px; fill: black; font-weight: bold;">21</tspan></text><text x="9" y="87.85714285714282" text-anchor="start"><tspan alignment-baseline="middle" x="9" style="font-family: Arial, sans-serif; font-size: 10px; fill: black; font-weight: bold;">25</tspan></text><text x="9" y="131.78571428571428" text-anchor="start"><tspan alignment-baseline="middle" x="9" style="font-family: Arial, sans-serif; font-size: 10px; fill: black; font-weight: bold;">23</tspan></text><text x="9" y="185.44642857142858" text-anchor="start"><tspan alignment-baseline="middle" x="9" style="font-family: Arial, sans-serif; font-size: 10px; fill: black; font-weight: bold;">19</tspan></text><text x="9" y="258.57142857142856" text-anchor="start"><tspan alignment-baseline="middle" x="9" style="font-family: Arial, sans-serif; font-size: 10px; fill: black; font-weight: bold;">20</tspan></text><text x="776" y="48.928571428571445" text-anchor="end"><tspan alignment-baseline="middle" x="776" style="font-family: Arial, sans-serif; font-size: 10px; fill: black; font-weight: bold;">IN23</tspan></text><text x="776" y="151.25000000000003" text-anchor="end"><tspan alignment-baseline="middle" x="776" style="font-family: Arial, sans-serif; font-size: 10px; fill: black; font-weight: bold;">A22</tspan></text><text x="9" y="370.625" text-anchor="start"><tspan alignment-baseline="middle" x="9" style="font-family: Arial, sans-serif; font-size: 10px; fill: black; font-weight: bold;">22</tspan></text><text x="9" y="511.875" text-anchor="start"><tspan alignment-baseline="middle" x="9" style="font-family: Arial, sans-serif; font-size: 10px; fill: black; font-weight: bold;">24</tspan></text><text x="776" y="292.5" text-anchor="end"><tspan alignment-baseline="middle" x="776" style="font-family: Arial, sans-serif; font-size: 10px; fill: black; font-weight: bold;">L20</tspan></text><text x="776" y="472.67857142857144" text-anchor="end"><tspan alignment-baseline="middle" x="776" style="font-family: Arial, sans-serif; font-size: 10px; fill: black; font-weight: bold;">S10-Rev23</tspan></text></g><g><text x="2.5" y="-4" text-anchor="middle" style="font-family: Arial, sans-serif; font-size: 12px; fill: rgb(123, 123, 123); font-weight: bold;">edad</text><text x="782.5" y="6" text-anchor="middle" style="font-family: Arial, sans-serif; font-size: 12px; fill: rgb(123, 123, 123); font-weight: bold;">plan</text></g></g></svg>